<svg width="45" height="45" viewBox="0 0 45 45" fill="none" xmlns="http://www.w3.org/2000/svg">
<mask id="mask0_149_14" style="mask-type:luminance" maskUnits="userSpaceOnUse" x="0" y="0" width="45" height="45">
<path d="M0 0H45V45H0V0Z" fill="white"/>
</mask>
<g mask="url(#mask0_149_14)">
<path d="M22.5 0C10.0711 0 0 10.0723 0 22.5C0 34.9289 10.0711 45 22.5 45C34.9289 45 45 34.9289 45 22.5C44.9801 10.0723 34.909 0 22.5 0ZM35.4551 28.793C35.2008 30.4488 33.7594 31.6559 32.0848 31.6559H12.8965C11.2207 31.6559 9.7793 30.4488 9.52617 28.793C9.2918 27.2531 9.05859 25.1109 9.03867 22.4813C9.05859 19.8516 9.27305 17.7281 9.52617 16.1695C9.7793 14.5137 11.2207 13.3055 12.8965 13.3055H32.0848C33.7594 13.3055 35.2008 14.5137 35.4551 16.1695C35.6883 17.7082 35.9227 19.8516 35.9414 22.4813C35.9227 25.1109 35.6883 27.2531 35.4551 28.793Z" fill="black"/>
</g>
<path d="M19.6553 18.8376V26.1431L26.4545 22.4998L19.6553 18.8376Z" fill="black"/>
</svg>
